<svg height="402pt" viewBox="-22 0 402 402.77847" width="402pt" xmlns="http://www.w3.org/2000/svg"><path d="m296.855469 395.953125v-88.746094c0-14.421875 5.339843-28.300781 14.925781-39.074219 26.289062-29.542968 41.601562-69.046874 39.496094-112.164062-3.835938-78.390625-66.699219-142.964844-144.972656-148.707031-89.753907-6.578125-164.953126 62.339843-168.6875 149.769531l-.175782-.015625-29.511718 82.640625c-2.453126 6.867188 1.667968 14.332031 8.785156 15.914062l32.046875 7.121094 8 74.644532c.660156 6.152343 5.859375 10.828124 12.054687 10.828124h64.199219v47.785157" fill="#ffd578"/><path d="m303.679688 395.953125v-88.746094c0-12.734375 4.714843-24.996093 13.199218-34.539062 25.742188-28.917969 41.417969-67.070313 41.414063-108.832031 0-2.722657-.066407-5.453126-.199219-8.195313-4.046875-81.890625-69.519531-149.144531-151.292969-155.1875-4.140625-.304687-8.257812-.453125-12.34375-.453125-88.109375.0078125-159.9375 69.535156-163.664062 156.738281l6.820312.292969.527344-6.808594-.175781-.011718c-3.0625-.238282-5.917969 1.617187-6.953125 4.511718l-29.511719 82.640625c-.75 2.089844-1.113281 4.253907-1.109375 6.375-.011719 8.613281 5.914063 16.492188 14.839844 18.496094l27.265625 6.058594 7.476562 69.773437c1.039063 9.625 9.15625 16.921875 18.84375 16.921875h57.371094v40.964844c0 3.769531 3.058594 6.824219 6.828125 6.824219s6.824219-3.054688 6.824219-6.824219v-47.789063c0-1.796874-.726563-3.554687-1.996094-4.828124-1.273438-1.269532-3.03125-1.996094-4.828125-1.996094h-64.199219c-2.703125.003906-4.984375-2.050782-5.265625-4.730469l-8-74.644531c-.3125-2.914063-2.449219-5.304688-5.308593-5.9375l-32.046876-7.121094c-2.5-.539062-4.140624-2.785156-4.152343-5.167969l.316406-1.785156 29.511719-82.640625-6.429688-2.296875-.523437 6.804687.175781.015626c1.84375.140624 3.667969-.472657 5.050781-1.699219 1.386719-1.230469 2.214844-2.96875 2.292969-4.816407 3.40625-79.90625 69.261719-143.675781 150.023438-143.667968 3.746093 0 7.527343.140625 11.34375.417968 74.769531 5.441407 135.03125 67.332032 138.652343 142.234376.125 2.519531.183594 5.03125.1875 7.53125-.003906 38.320312-14.34375 73.203124-37.960937 99.753906-10.683594 12.007812-16.652344 27.503906-16.652344 43.613281v88.746094c0 3.769531 3.054688 6.828125 6.828125 6.828125 3.765625 0 6.824219-3.054688 6.820313-6.824219zm0 0" fill="#54596e"/><path d="m310.507812 157.019531c0 64.09375-51.957031 116.050781-116.050781 116.050781s-116.054687-51.957031-116.054687-116.050781 51.960937-116.054687 116.054687-116.054687 116.050781 51.960937 116.050781 116.054687zm0 0" fill="#fff35f"/><path d="m310.507812 157.019531h6.828126c-.003907-67.867187-55.011719-122.878906-122.878907-122.882812-67.867187.003906-122.878906 55.015625-122.882812 122.882812.003906 67.863281 55.015625 122.875 122.882812 122.878907 67.863281-.003907 122.875-55.015626 122.878907-122.878907h-13.652344c-.003906 30.179688-12.214844 57.445313-31.992188 77.234375-19.789062 19.773438-47.054687 31.984375-77.234375 31.992188-30.183593-.007813-57.449219-12.21875-77.234375-31.992188-19.777344-19.789062-31.988281-47.054687-31.996094-77.234375.003907-30.183593 12.214844-57.449219 31.996094-77.234375 19.785156-19.777344 47.050782-31.988281 77.234375-31.996094 30.179688.007813 57.445313 12.21875 77.234375 31.996094 19.773438 19.785156 31.984375 47.050782 31.992188 77.234375zm0 0" fill="#54596e"/><path d="m290.03125 157.019531h6.824219c-.003907-56.5625-45.839844-102.398437-102.398438-102.402343-56.558593.003906-102.398437 45.839843-102.402343 102.402343.003906 56.558594 45.84375 102.394531 102.402343 102.398438 56.558594-.003907 102.394531-45.839844 102.398438-102.398438h-13.652344c-.003906 24.527344-9.921875 46.671875-25.992187 62.753907-16.082032 16.070312-38.226563 25.988281-62.753907 25.992187-24.53125-.003906-46.675781-9.921875-62.753906-25.992187-16.070313-16.082032-25.992187-38.222657-25.992187-62.753907s9.921874-46.675781 25.992187-62.757812c16.078125-16.070313 38.222656-25.988281 62.753906-25.992188 24.527344.003907 46.671875 9.921875 62.753907 25.992188 16.070312 16.082031 25.988281 38.222656 25.992187 62.757812zm0 0" fill="#ffd578"/><g fill="#54596e"><path d="m221.761719 150.191406h13.65625v-19.867187c-.007813-19.195313-15.554688-34.742188-34.746094-34.746094h-33.523437c-3.59375 0-7.109376 1.457031-9.652344 4-2.542969 2.539063-4 6.058594-4 9.652344v40.960937c0 3.59375 1.457031 7.113282 4 9.652344 2.542968 2.542969 6.058594 4 9.652344 4h54.613281c3.59375 0 7.113281-1.457031 9.65625-4 2.542969-2.539062 4-6.058594 4-9.652344h-13.65625v-13.652344h-40.960938v-13.65625h19.867188c4.113281.007813 7.433593 3.328126 7.441406 7.441407v19.867187h13.652344v-13.652344zm0 0"/><path d="m220.851562 191.152344v-13.652344h-40.050781v-13.660156h40.960938v12.746094l-.910157.914062v27.304688c15.589844-.007813 28.210938-12.628907 28.21875-28.21875v-26.394532c0-3.59375-1.457031-7.113281-4-9.652344-2.542968-2.542968-6.058593-4-9.652343-4h-68.269531c-3.59375 0-7.109376 1.457032-9.652344 4-2.542969 2.539063-4 6.058594-4 9.652344v40.960938c0 3.59375 1.457031 7.109375 4 9.652344 2.542968 2.542968 6.058594 4 9.652344 4h53.703124zm0 0"/><path d="m180.800781 88.75v13.65625c0 7.539062 6.113281 13.652344 13.65625 13.652344 7.539063 0 13.652344-6.113282 13.652344-13.652344v-13.65625c0-7.539062-6.113281-13.652344-13.652344-13.652344-7.542969 0-13.65625 6.113282-13.65625 13.652344"/><path d="m187.628906 191.152344v20.480468c0 7.539063 6.113282 13.652344 13.652344 13.652344 7.542969 0 13.65625-6.113281 13.65625-13.652344v-20.480468c0-7.542969-6.113281-13.652344-13.65625-13.652344-7.539062 0-13.652344 6.109375-13.652344 13.652344"/></g></svg>