<svg xmlns="http://www.w3.org/2000/svg" viewBox="0 0 257.79 28.74"><defs><style>.cls-1{fill:#ef5753;}.cls-2{fill:#3fb980;}.cls-3{fill:#333536;}</style></defs><title>Asset 2</title><g id="Layer_2" data-name="Layer 2"><g id="artwork"><path class="cls-1" d="M2.68,1.28a6.87,6.87,0,0,1,7.79,7.8,6.87,6.87,0,0,1-7.79-7.8Zm0,26.17a6.86,6.86,0,0,0,7.79-7.79,6.87,6.87,0,0,0-7.79,7.79ZM33,14.37A3.92,3.92,0,1,0,37,10.45,3.93,3.93,0,0,0,33,14.37Zm-10,5.22A3.92,3.92,0,1,0,27,15.67,3.91,3.91,0,0,0,23.05,19.59Zm0-10.45A3.92,3.92,0,1,0,27,5.22,3.91,3.91,0,0,0,23.05,9.14Zm-10,5.23A3.92,3.92,0,1,0,17,10.45,3.93,3.93,0,0,0,13.06,14.37Zm0,10.45A3.92,3.92,0,1,0,17,20.9,3.93,3.93,0,0,0,13.06,24.82Zm0-20.9A3.92,3.92,0,1,0,17,0,3.93,3.93,0,0,0,13.06,3.92ZM10.45,14.37H0m0-1.31v2.61H10.45V13.06Z"/><path class="cls-2" d="M2.68,1.28a6.87,6.87,0,0,1,7.79,7.8,6.87,6.87,0,0,1-7.79-7.8Z"/><path class="cls-2" d="M2.68,27.45a6.86,6.86,0,0,0,7.79-7.79,6.87,6.87,0,0,0-7.79,7.79Z"/><rect class="cls-2" y="13.06" width="10.45" height="2.61"/><path class="cls-3" d="M59.73,7.31v5.45l6.18-6.44a6,6,0,0,1,.75-.69,1.42,1.42,0,0,1,.84-.22,1.53,1.53,0,0,1,1.09.39,1.3,1.3,0,0,1,.42,1,1.91,1.91,0,0,1-.71,1.37l-3.82,3.62,4.4,6.32a7.51,7.51,0,0,1,.7,1.14,2.19,2.19,0,0,1,.24,1,1.19,1.19,0,0,1-.41.9,1.53,1.53,0,0,1-1.11.39,1.85,1.85,0,0,1-1.07-.29,2.37,2.37,0,0,1-.7-.74L66,19.59l-3.71-5.72-2.58,2.47v3.21A2.05,2.05,0,0,1,59.29,21a1.5,1.5,0,0,1-1.15.48,1.55,1.55,0,0,1-.77-.22,1.42,1.42,0,0,1-.57-.57,1.85,1.85,0,0,1-.18-.69c0-.26,0-.64,0-1.13V7.31A2.18,2.18,0,0,1,57,5.88a1.63,1.63,0,0,1,2.29,0A2,2,0,0,1,59.73,7.31Z"/><path class="cls-3" d="M75.16,11.31v.35a5,5,0,0,1,1.67-1.48,4.34,4.34,0,0,1,2.08-.47,4.16,4.16,0,0,1,2,.49,3.28,3.28,0,0,1,1.35,1.41,3.52,3.52,0,0,1,.37,1.15,11.38,11.38,0,0,1,.08,1.57v5.38A1.93,1.93,0,0,1,82.36,21a1.33,1.33,0,0,1-1,.45,1.36,1.36,0,0,1-1-.46,1.94,1.94,0,0,1-.4-1.3V14.89a4.72,4.72,0,0,0-.4-2.19,1.6,1.6,0,0,0-1.58-.76,2.4,2.4,0,0,0-1.41.46,2.69,2.69,0,0,0-.93,1.27,9.08,9.08,0,0,0-.21,2.41v3.63A1.91,1.91,0,0,1,74.93,21a1.37,1.37,0,0,1-1.05.44,1.33,1.33,0,0,1-1-.46,1.89,1.89,0,0,1-.4-1.3V11.35a1.85,1.85,0,0,1,.36-1.24,1.23,1.23,0,0,1,1-.4,1.31,1.31,0,0,1,.69.18,1.29,1.29,0,0,1,.49.54A1.82,1.82,0,0,1,75.16,11.31Z"/><path class="cls-3" d="M96.57,15.59a7,7,0,0,1-.4,2.38A5.21,5.21,0,0,1,95,19.84a5.14,5.14,0,0,1-1.82,1.21,6.43,6.43,0,0,1-2.38.42A6.33,6.33,0,0,1,88.43,21a5.23,5.23,0,0,1-3-3.08,7.25,7.25,0,0,1,0-4.78,5,5,0,0,1,1.15-1.86,4.92,4.92,0,0,1,1.82-1.19,6.93,6.93,0,0,1,4.75,0A5.22,5.22,0,0,1,95,11.34a5.1,5.1,0,0,1,1.16,1.86A6.77,6.77,0,0,1,96.57,15.59Zm-2.9,0a4.36,4.36,0,0,0-.78-2.76,2.74,2.74,0,0,0-3.59-.54,2.73,2.73,0,0,0-1,1.29,5.19,5.19,0,0,0-.35,2,5.27,5.27,0,0,0,.34,2,2.84,2.84,0,0,0,1,1.29,2.72,2.72,0,0,0,3.6-.54A4.3,4.3,0,0,0,93.67,15.59Z"/><path class="cls-3" d="M100.76,11.51,102.64,18l1.72-6c.18-.63.32-1.05.4-1.28a1.75,1.75,0,0,1,.5-.66,1.5,1.5,0,0,1,1-.31,1.53,1.53,0,0,1,1,.31,1.79,1.79,0,0,1,.51.68A12.51,12.51,0,0,1,108.2,12l1.72,6,1.91-6.46c.12-.47.23-.81.3-1a1.32,1.32,0,0,1,.39-.55,1.19,1.19,0,0,1,.8-.24,1.29,1.29,0,0,1,.9.36,1.13,1.13,0,0,1,.38.84,4.39,4.39,0,0,1-.33,1.35l-2.36,6.93c-.2.58-.36,1-.48,1.27a1.94,1.94,0,0,1-.53.7,1.79,1.79,0,0,1-2,0,2,2,0,0,1-.55-.81c-.12-.32-.25-.73-.39-1.24l-1.66-5.63-1.6,5.63a7.13,7.13,0,0,1-.68,1.78,1.42,1.42,0,0,1-1.31.6,1.73,1.73,0,0,1-.81-.19,1.47,1.47,0,0,1-.55-.53,3.68,3.68,0,0,1-.39-.82c-.12-.31-.21-.56-.27-.74l-2.34-6.93A5,5,0,0,1,98,10.91a1.12,1.12,0,0,1,.37-.83,1.23,1.23,0,0,1,.91-.37,1.07,1.07,0,0,1,1,.4A6.69,6.69,0,0,1,100.76,11.51Z"/><path class="cls-3" d="M116.7,19.71V7.16a2,2,0,0,1,.39-1.31,1.28,1.28,0,0,1,1-.44,1.35,1.35,0,0,1,1.06.44,1.87,1.87,0,0,1,.4,1.31V19.71a1.87,1.87,0,0,1-.41,1.32,1.37,1.37,0,0,1-1.05.44,1.31,1.31,0,0,1-1-.46A1.89,1.89,0,0,1,116.7,19.71Z"/><path class="cls-3" d="M130.76,16.3H125.1a3.84,3.84,0,0,0,.4,1.73,2.79,2.79,0,0,0,1,1.14,2.76,2.76,0,0,0,1.41.38,3.48,3.48,0,0,0,.95-.12,3.13,3.13,0,0,0,.83-.39,5.27,5.27,0,0,0,.74-.55c.23-.2.52-.47.88-.81a1.17,1.17,0,0,1,1.36.06.87.87,0,0,1,.27.68,1.9,1.9,0,0,1-.3.92,3.77,3.77,0,0,1-.93,1,5.18,5.18,0,0,1-1.56.8,6.71,6.71,0,0,1-2.15.32,5.75,5.75,0,0,1-4.33-1.59,5.9,5.9,0,0,1-1.55-4.32,7.27,7.27,0,0,1,.38-2.37,5.27,5.27,0,0,1,1.11-1.88,4.81,4.81,0,0,1,1.8-1.21,6.72,6.72,0,0,1,2.38-.41,5.57,5.57,0,0,1,2.9.71,4.68,4.68,0,0,1,1.82,1.85,4.85,4.85,0,0,1,.6,2.31c0,.73-.2,1.2-.62,1.41A3.83,3.83,0,0,1,130.76,16.3Zm-5.66-1.65h5.25a3.55,3.55,0,0,0-.8-2.22,2.39,2.39,0,0,0-1.83-.73,2.3,2.3,0,0,0-1.77.75A3.64,3.64,0,0,0,125.1,14.65Z"/><path class="cls-3" d="M143.61,19.81v-.28a7.55,7.55,0,0,1-1.15,1.08,4.37,4.37,0,0,1-1.23.64,4.72,4.72,0,0,1-1.44.22,4.34,4.34,0,0,1-1.93-.44,4.82,4.82,0,0,1-1.53-1.26,5.8,5.8,0,0,1-1-1.92,8.25,8.25,0,0,1-.33-2.38,6.23,6.23,0,0,1,1.32-4.23,4.42,4.42,0,0,1,3.49-1.51,4.64,4.64,0,0,1,2.11.43,5.63,5.63,0,0,1,1.67,1.32V7.21A2.15,2.15,0,0,1,144,5.86a1.2,1.2,0,0,1,1-.45,1.27,1.27,0,0,1,1,.41,1.85,1.85,0,0,1,.36,1.24V19.81a1.74,1.74,0,0,1-.39,1.24,1.26,1.26,0,0,1-1,.42,1.28,1.28,0,0,1-1-.43A1.78,1.78,0,0,1,143.61,19.81Zm-5.69-4.25a5,5,0,0,0,.37,2,2.78,2.78,0,0,0,1,1.24,2.47,2.47,0,0,0,1.39.42,2.51,2.51,0,0,0,1.39-.4,2.7,2.7,0,0,0,1-1.22,4.91,4.91,0,0,0,.37-2,4.79,4.79,0,0,0-.37-2,2.91,2.91,0,0,0-1-1.27,2.39,2.39,0,0,0-1.4-.44,2.36,2.36,0,0,0-1.42.45,2.87,2.87,0,0,0-1,1.29A5.1,5.1,0,0,0,137.92,15.56Z"/><path class="cls-3" d="M160,11.83v8.4a8.54,8.54,0,0,1-.31,2.47,3.89,3.89,0,0,1-1,1.72,4.12,4.12,0,0,1-1.78,1,9.58,9.58,0,0,1-2.72.33,7.88,7.88,0,0,1-2.67-.42,4.56,4.56,0,0,1-1.81-1.08,2,2,0,0,1-.64-1.36,1.12,1.12,0,0,1,.36-.87,1.24,1.24,0,0,1,.87-.33,1.41,1.41,0,0,1,1.11.56l.48.58a2.59,2.59,0,0,0,.56.49,2.15,2.15,0,0,0,.72.31,4.07,4.07,0,0,0,1,.1,4,4,0,0,0,1.75-.31,1.84,1.84,0,0,0,.87-.87,3.76,3.76,0,0,0,.29-1.21c0-.42.05-1.11.06-2.06a4.69,4.69,0,0,1-1.54,1.42,4.16,4.16,0,0,1-2.08.49,4.42,4.42,0,0,1-2.54-.74,4.82,4.82,0,0,1-1.67-2.08,7.62,7.62,0,0,1-.58-3.08,7.49,7.49,0,0,1,.35-2.35,5,5,0,0,1,1-1.77,4.36,4.36,0,0,1,1.51-1.09,4.82,4.82,0,0,1,1.89-.36,4.58,4.58,0,0,1,2.13.47,5.19,5.19,0,0,1,1.67,1.48v-.39a1.68,1.68,0,0,1,.37-1.17,1.21,1.21,0,0,1,.95-.41,1.14,1.14,0,0,1,1.12.54A3.68,3.68,0,0,1,160,11.83Zm-8.38,3.66a4,4,0,0,0,.77,2.66,2.48,2.48,0,0,0,2,.9,2.58,2.58,0,0,0,1.36-.39,2.82,2.82,0,0,0,1-1.16,4.06,4.06,0,0,0,.4-1.89,4.36,4.36,0,0,0-.78-2.76,2.48,2.48,0,0,0-2-1,2.41,2.41,0,0,0-2,.94A4.21,4.21,0,0,0,151.61,15.49Z"/><path class="cls-3" d="M171.1,16.3h-5.66a3.84,3.84,0,0,0,.4,1.73,2.63,2.63,0,0,0,2.44,1.52,3.58,3.58,0,0,0,.95-.12,3.28,3.28,0,0,0,.83-.39,5.92,5.92,0,0,0,.74-.55c.23-.2.52-.47.88-.81a1,1,0,0,1,.63-.19,1,1,0,0,1,.72.25.84.84,0,0,1,.28.68,1.82,1.82,0,0,1-.31.92,3.56,3.56,0,0,1-.92,1,5.44,5.44,0,0,1-1.56.8,6.77,6.77,0,0,1-2.16.32A5.77,5.77,0,0,1,164,19.88a5.94,5.94,0,0,1-1.55-4.32,7,7,0,0,1,.39-2.37A5.13,5.13,0,0,1,164,11.31a4.73,4.73,0,0,1,1.8-1.21,6.62,6.62,0,0,1,2.37-.41,5.6,5.6,0,0,1,2.91.71,4.75,4.75,0,0,1,1.82,1.85,4.85,4.85,0,0,1,.6,2.31q0,1.09-.63,1.41A3.78,3.78,0,0,1,171.1,16.3Zm-5.66-1.65h5.24a3.49,3.49,0,0,0-.8-2.22,2.38,2.38,0,0,0-1.82-.73,2.32,2.32,0,0,0-1.78.75A3.7,3.7,0,0,0,165.44,14.65Z"/><path class="cls-3" d="M188.39,21.2h-4.75a1.94,1.94,0,0,1-1.46-.46,2.05,2.05,0,0,1-.44-1.47V7.6a2,2,0,0,1,.45-1.48,2,2,0,0,1,1.45-.45h5a11.84,11.84,0,0,1,1.93.14,4,4,0,0,1,1.46.53,3.7,3.7,0,0,1,1,.83,3.65,3.65,0,0,1,.64,1.11,3.73,3.73,0,0,1,.23,1.29A3.58,3.58,0,0,1,191.58,13q3.06,1,3.06,3.79a4.24,4.24,0,0,1-.67,2.35,4,4,0,0,1-1.8,1.54,6.26,6.26,0,0,1-1.63.42A16.92,16.92,0,0,1,188.39,21.2ZM184.88,8v4h2.88a6.07,6.07,0,0,0,1.82-.22,1.77,1.77,0,0,0,1-.85,1.89,1.89,0,0,0,.26-1A1.54,1.54,0,0,0,190,8.42,6.35,6.35,0,0,0,187.44,8Zm3.28,6.27h-3.28v4.54h3.38c2.13,0,3.19-.77,3.19-2.3a1.88,1.88,0,0,0-.83-1.71A4.63,4.63,0,0,0,188.16,14.3Z"/><path class="cls-3" d="M205.34,16.3h-5.66a3.84,3.84,0,0,0,.4,1.73,2.79,2.79,0,0,0,1,1.14,2.73,2.73,0,0,0,1.41.38,3.53,3.53,0,0,0,.95-.12,3.13,3.13,0,0,0,.83-.39,5.27,5.27,0,0,0,.74-.55c.23-.2.52-.47.88-.81a1,1,0,0,1,.64-.19,1,1,0,0,1,.72.25.87.87,0,0,1,.27.68,1.9,1.9,0,0,1-.3.92,3.77,3.77,0,0,1-.93,1,5.18,5.18,0,0,1-1.56.8,6.71,6.71,0,0,1-2.15.32,5.78,5.78,0,0,1-4.34-1.59,5.93,5.93,0,0,1-1.54-4.32,7,7,0,0,1,.38-2.37,5.13,5.13,0,0,1,1.11-1.88A4.81,4.81,0,0,1,200,10.1a6.66,6.66,0,0,1,2.37-.41,5.6,5.6,0,0,1,2.91.71,4.68,4.68,0,0,1,1.82,1.85,4.85,4.85,0,0,1,.6,2.31c0,.73-.21,1.2-.62,1.41A3.83,3.83,0,0,1,205.34,16.3Zm-5.66-1.65h5.25a3.55,3.55,0,0,0-.8-2.22,2.42,2.42,0,0,0-1.83-.73,2.3,2.3,0,0,0-1.77.75A3.64,3.64,0,0,0,199.68,14.65Z"/><path class="cls-3" d="M213.14,17.29v2.42a1.91,1.91,0,0,1-.41,1.32,1.4,1.4,0,0,1-1,.44,1.32,1.32,0,0,1-1-.45,1.88,1.88,0,0,1-.4-1.31v-8q0-2,1.41-1.95a1.16,1.16,0,0,1,1,.45,2.45,2.45,0,0,1,.35,1.35,5,5,0,0,1,1.07-1.35,2.21,2.21,0,0,1,1.45-.45,3.75,3.75,0,0,1,1.77.45,1.36,1.36,0,0,1,.86,1.21A1.22,1.22,0,0,1,217,12.59a3.81,3.81,0,0,1-.77-.2,3.62,3.62,0,0,0-1.08-.19,1.55,1.55,0,0,0-1,.33,2.12,2.12,0,0,0-.63,1,7.05,7.05,0,0,0-.31,1.56C213.17,15.69,213.14,16.42,213.14,17.29Z"/><path class="cls-3" d="M222.75,17.29v2.42a1.91,1.91,0,0,1-.41,1.32,1.4,1.4,0,0,1-1.05.44,1.32,1.32,0,0,1-1-.45,1.88,1.88,0,0,1-.4-1.31v-8q0-2,1.41-1.95a1.16,1.16,0,0,1,1,.45,2.45,2.45,0,0,1,.35,1.35,5,5,0,0,1,1.07-1.35,2.21,2.21,0,0,1,1.45-.45,3.75,3.75,0,0,1,1.77.45,1.36,1.36,0,0,1,.86,1.21,1.22,1.22,0,0,1-1.15,1.22,3.81,3.81,0,0,1-.77-.2,3.62,3.62,0,0,0-1.08-.19,1.55,1.55,0,0,0-1,.33,2.12,2.12,0,0,0-.63,1,7.05,7.05,0,0,0-.31,1.56C222.78,15.69,222.75,16.42,222.75,17.29Z"/><path class="cls-3" d="M231,8.36a1.5,1.5,0,0,1-1-.37,1.31,1.31,0,0,1-.43-1,1.32,1.32,0,0,1,.44-1,1.49,1.49,0,0,1,1-.4,1.52,1.52,0,0,1,1,.36,1.28,1.28,0,0,1,.43,1.05A1.33,1.33,0,0,1,232,8,1.48,1.48,0,0,1,231,8.36Zm1.43,3v8.36A1.89,1.89,0,0,1,232,21a1.38,1.38,0,0,1-1.05.45,1.31,1.31,0,0,1-1-.46,1.89,1.89,0,0,1-.4-1.3V11.43a1.83,1.83,0,0,1,.4-1.29,1.32,1.32,0,0,1,1-.43,1.4,1.4,0,0,1,1.05.43A1.7,1.7,0,0,1,232.38,11.35Z"/><path class="cls-3" d="M243.55,16.3h-5.66a3.84,3.84,0,0,0,.4,1.73,2.79,2.79,0,0,0,1,1.14,2.73,2.73,0,0,0,1.41.38,3.53,3.53,0,0,0,1-.12,3.28,3.28,0,0,0,.83-.39,5.27,5.27,0,0,0,.74-.55c.23-.2.52-.47.88-.81a1,1,0,0,1,.64-.19,1,1,0,0,1,.72.25.87.87,0,0,1,.27.68,1.9,1.9,0,0,1-.3.92,3.77,3.77,0,0,1-.93,1,5.18,5.18,0,0,1-1.56.8,6.71,6.71,0,0,1-2.15.32,5.78,5.78,0,0,1-4.34-1.59,5.93,5.93,0,0,1-1.54-4.32,7,7,0,0,1,.38-2.37,5.13,5.13,0,0,1,1.11-1.88,4.81,4.81,0,0,1,1.8-1.21,6.66,6.66,0,0,1,2.37-.41,5.6,5.6,0,0,1,2.91.71,4.68,4.68,0,0,1,1.82,1.85,4.85,4.85,0,0,1,.6,2.31c0,.73-.21,1.2-.62,1.41A3.86,3.86,0,0,1,243.55,16.3Zm-5.66-1.65h5.25a3.61,3.61,0,0,0-.8-2.22,2.42,2.42,0,0,0-1.83-.73,2.33,2.33,0,0,0-1.78.75A3.7,3.7,0,0,0,237.89,14.65Z"/><path class="cls-3" d="M257.79,17.68A3.36,3.36,0,0,1,255.48,21a7.77,7.77,0,0,1-2.77.44,6.69,6.69,0,0,1-2.66-.48,4,4,0,0,1-1.65-1.19,2.44,2.44,0,0,1-.53-1.44,1.11,1.11,0,0,1,.34-.81,1.15,1.15,0,0,1,.86-.34,1,1,0,0,1,.7.22,2.71,2.71,0,0,1,.47.62,3.16,3.16,0,0,0,1.06,1.16,3.25,3.25,0,0,0,1.69.38,2.41,2.41,0,0,0,1.42-.39,1.06,1.06,0,0,0,.56-.88,1.19,1.19,0,0,0-.58-1.11,6.79,6.79,0,0,0-1.9-.67,16.68,16.68,0,0,1-2.43-.78,4.12,4.12,0,0,1-1.5-1.07A2.52,2.52,0,0,1,248,13a2.87,2.87,0,0,1,.52-1.64,3.59,3.59,0,0,1,1.53-1.23,5.81,5.81,0,0,1,2.44-.46,7.85,7.85,0,0,1,2,.23,5.14,5.14,0,0,1,1.49.62,3.18,3.18,0,0,1,.91.87,1.71,1.71,0,0,1,.32.94,1,1,0,0,1-.34.81,1.32,1.32,0,0,1-.94.32,1.17,1.17,0,0,1-.76-.26,4.5,4.5,0,0,1-.72-.76,2.62,2.62,0,0,0-.77-.68,2.45,2.45,0,0,0-1.21-.25,2.39,2.39,0,0,0-1.3.33,1,1,0,0,0-.52.84.9.9,0,0,0,.38.74,3,3,0,0,0,1,.48c.43.13,1,.29,1.78.47a9.74,9.74,0,0,1,2.2.78,3.71,3.71,0,0,1,1.29,1.08A2.38,2.38,0,0,1,257.79,17.68Z"/></g></g></svg>