<svg xmlns="http://www.w3.org/2000/svg" viewBox="0 0 32.49 45.89"><defs><style>.cls-1{fill:#ef5451;}.cls-2{fill:#40b980;}</style></defs><title>Asset 1</title><g id="Layer_2" data-name="Layer 2"><g id="artwork"><circle class="cls-1" cx="16.24" cy="30.85" r="15.04"/><path class="cls-2" d="M32.4,4.12A9.14,9.14,0,0,0,22,14.49,9.14,9.14,0,0,0,32.4,4.12Z"/><path class="cls-2" d="M.09,4.12A9.14,9.14,0,0,0,10.46,14.49,9.14,9.14,0,0,0,.09,4.12Z"/><path class="cls-2" d="M16.24,0a1.56,1.56,0,0,0-1.56,1.57V11.64a1.57,1.57,0,0,0,3.13,0V1.57A1.57,1.57,0,0,0,16.24,0Z"/></g></g></svg>